<svg version="1.1" id="Layer_1" xmlns="http://www.w3.org/2000/svg" xmlns:xlink="http://www.w3.org/1999/xlink" x="0px" y="0px"
	 width="100%" viewBox="0 0 1513 1492" enable-background="new 0 0 1513 1492" xml:space="preserve">
<path fill="#000000" opacity="0" stroke="none" 
	d="
M1001.000000,1493.000000 
	C667.333374,1493.000000 334.166779,1493.000000 1.000134,1493.000000 
	C1.000089,995.666809 1.000089,498.333618 1.000045,1.000334 
	C505.333099,1.000223 1009.666199,1.000223 1513.999512,1.000111 
	C1513.999634,498.333008 1513.999634,995.666016 1513.999756,1492.999512 
	C1343.166626,1493.000000 1172.333374,1493.000000 1001.000000,1493.000000 
M537.845886,870.505920 
	C537.794922,870.319458 537.743896,870.132935 537.790100,869.020508 
	C537.516235,816.070312 537.247070,763.120178 536.943604,710.170105 
	C536.935242,708.709290 536.376648,707.249268 536.387024,705.791077 
	C536.420715,701.044250 535.203186,695.621216 537.090271,691.730652 
	C539.251648,687.274353 544.218994,684.179016 547.913269,680.545532 
	C570.103394,700.122925 593.688110,703.768738 615.199341,704.847595 
	C625.421021,705.360229 635.719910,704.325928 645.984131,704.002014 
	C657.247803,703.646484 668.529846,703.587830 679.771057,702.878723 
	C693.182617,702.032776 705.443115,697.862000 715.108337,688.026550 
	C718.090942,684.991333 720.479492,681.372437 723.347351,677.759644 
	C726.390015,679.474548 729.260925,681.512512 732.437256,682.793213 
	C738.556458,685.260559 741.542786,690.086121 744.553101,695.657837 
	C772.296631,747.008606 800.588867,798.064087 828.172791,849.499634 
	C843.343750,877.788818 858.030518,906.371155 871.849854,935.339294 
	C880.434814,953.335205 884.314026,972.800598 884.054565,992.992859 
	C883.545654,1032.586426 883.389221,1072.184570 882.970032,1111.779419 
	C882.820740,1125.878906 882.736572,1139.999512 881.874634,1154.064697 
	C881.143921,1165.989380 879.385376,1177.854004 877.989197,1189.734375 
	C876.671143,1200.949829 875.390442,1212.173706 873.804688,1223.352783 
	C872.040649,1235.789185 869.763428,1248.153564 868.056091,1260.596924 
	C866.453491,1272.276978 865.160156,1284.005005 863.989624,1295.737671 
	C862.521851,1310.449463 860.992371,1325.168579 860.135742,1339.921997 
	C859.697266,1347.474243 860.613953,1355.111206 861.013916,1362.704712 
	C861.499451,1371.924683 863.751709,1380.635986 867.938721,1388.953003 
	C877.399170,1407.744629 903.904236,1407.086182 914.366272,1393.231079 
	C922.080750,1383.014648 924.265015,1371.148193 924.876709,1359.006836 
	C925.961853,1337.469971 924.457825,1315.976685 921.935181,1294.577271 
	C920.940247,1286.137329 919.414185,1277.760376 918.156982,1269.350708 
	C916.755615,1259.976807 915.280212,1250.612427 914.028442,1241.218384 
	C912.557495,1230.178833 911.183105,1219.123779 909.966370,1208.053589 
	C908.532532,1195.008911 906.445862,1181.957397 906.197083,1168.879150 
	C905.796143,1147.796265 906.650513,1126.688721 907.007263,1105.592163 
	C907.313354,1087.488770 907.764526,1069.387451 907.964844,1051.283081 
	C908.123352,1036.953125 907.776184,1022.615295 908.083496,1008.290100 
	C908.267273,999.723755 908.798462,991.106506 910.008118,982.631348 
	C913.671936,956.960205 928.379089,938.455750 949.687561,925.077942 
	C970.096741,912.264709 993.299927,908.459045 1016.870239,907.080627 
	C1033.773193,906.092224 1050.595459,907.435791 1067.237061,910.918457 
	C1100.100952,917.795959 1129.567749,932.098511 1155.421997,953.144470 
	C1185.948730,977.993896 1199.640137,1011.288086 1199.903931,1050.244141 
	C1199.967285,1059.610962 1198.735352,1068.993408 1197.954834,1078.356689 
	C1197.409790,1084.896729 1196.654907,1091.420288 1195.930054,1097.944092 
	C1194.645630,1109.502563 1193.269531,1121.051025 1192.015991,1132.612671 
	C1191.237061,1139.796753 1190.513672,1146.989990 1189.943726,1154.193115 
	C1189.201782,1163.568237 1187.843872,1172.985840 1188.181030,1182.333618 
	C1188.688599,1196.404175 1193.143555,1201.373169 1206.461792,1204.107666 
	C1218.568481,1206.593262 1227.601196,1199.885254 1229.767090,1189.513672 
	C1231.206299,1182.621094 1230.939087,1175.314697 1230.933838,1168.193848 
	C1230.928467,1160.928711 1230.822998,1153.594360 1229.849976,1146.413696 
	C1227.899902,1132.022583 1225.346802,1117.712646 1223.009399,1103.374634 
	C1219.953369,1084.627441 1216.642822,1065.918701 1213.859375,1047.131470 
	C1211.523071,1031.363037 1208.512573,1015.576416 1210.989258,999.500366 
	C1213.328613,984.315613 1217.348389,974.579895 1236.738281,971.019958 
	C1244.168701,969.655701 1251.851807,969.016907 1259.405396,969.118896 
	C1272.353394,969.293762 1282.904053,974.763306 1290.454590,985.549927 
	C1299.090210,997.886841 1302.523560,1012.162048 1302.727173,1026.628174 
	C1303.068359,1050.862305 1302.093506,1075.143921 1300.827759,1099.361450 
	C1299.994995,1115.293945 1297.599243,1131.141357 1296.053223,1147.041382 
	C1294.904419,1158.855957 1293.916382,1170.687744 1292.998901,1182.522949 
	C1291.593140,1200.654419 1290.310059,1218.795410 1288.414307,1237.403320 
	C1288.354492,1238.601196 1288.294678,1239.798950 1288.098022,1241.924194 
	C1288.139038,1247.610718 1288.180054,1253.297241 1288.058105,1259.703613 
	C1288.361938,1260.826416 1288.665771,1261.949341 1288.995605,1263.986450 
	C1288.945923,1277.450684 1291.192261,1290.538940 1296.156006,1303.037964 
	C1299.312866,1310.987305 1304.427368,1317.663086 1313.520630,1318.854004 
	C1323.574341,1320.170898 1331.633545,1315.958252 1336.834106,1307.246216 
	C1343.445190,1296.171387 1346.842041,1283.885620 1346.817749,1271.124634 
	C1346.782104,1252.398926 1346.233398,1233.631958 1344.825439,1214.963989 
	C1343.653442,1199.423828 1341.241943,1183.951416 1338.812500,1168.538330 
	C1335.859985,1149.807129 1331.893555,1131.231445 1329.128784,1112.475952 
	C1325.647705,1088.860840 1322.439209,1065.182129 1320.049316,1041.436646 
	C1318.011353,1021.189453 1317.079590,1000.818970 1316.147461,980.480591 
	C1315.905762,975.207886 1314.239258,971.500732 1309.827759,969.087524 
	C1296.295288,961.684998 1282.965820,953.839233 1269.062866,947.201660 
	C1241.237793,933.917236 1213.902710,920.137451 1191.357544,898.382019 
	C1167.815186,875.664490 1145.981201,851.604126 1131.011475,822.252441 
	C1113.647217,788.205627 1096.714111,753.932129 1080.096069,719.514526 
	C1072.914307,704.640747 1062.699951,692.923096 1048.658447,684.536011 
	C1042.327148,680.754272 1035.608032,677.622314 1028.995972,674.159546 
	C1030.004150,671.040161 1030.761475,667.788025 1032.148926,664.831726 
	C1032.740967,663.570129 1034.578735,662.255920 1035.969849,662.110901 
	C1044.475952,661.224365 1053.075928,661.090942 1061.532349,659.904907 
	C1076.031128,657.871338 1090.692749,656.224976 1104.846802,652.667908 
	C1133.540894,645.456848 1158.761475,631.663513 1178.954346,609.519592 
	C1197.853760,588.794312 1210.043945,564.292847 1218.919556,538.015198 
	C1228.810791,508.730804 1231.718628,478.263855 1232.790283,447.634613 
	C1233.295288,433.201691 1232.631226,418.700836 1231.921997,404.259003 
	C1230.941528,384.299133 1225.861694,365.151459 1218.518799,346.669312 
	C1211.125977,328.061462 1202.208740,310.164368 1189.047363,294.855225 
	C1176.261963,279.983673 1160.763550,268.114532 1144.722656,257.023102 
	C1124.084595,242.752945 1101.853882,231.344757 1077.509521,225.205414 
	C1052.778198,218.968521 1027.735352,213.840164 1002.655273,209.156891 
	C985.478516,205.949432 968.048218,203.896606 950.648865,202.148483 
	C937.021729,200.779358 923.273682,200.500778 909.569153,200.044739 
	C893.808655,199.520294 878.037109,199.049545 862.270142,199.043930 
	C673.281921,198.976746 484.293732,199.022537 295.305542,198.938065 
	C285.276672,198.933578 275.428223,196.894836 266.555084,192.050690 
	C258.599060,187.707199 251.047424,182.622955 243.048492,177.700043 
	C239.872650,180.926620 236.032928,184.827667 232.043045,188.881287 
	C232.341202,189.588913 232.649048,190.506256 233.106888,191.341370 
	C233.419220,191.911102 233.910507,192.395966 234.373672,192.867844 
	C248.518494,207.278290 253.855316,225.342316 253.870667,244.726730 
	C254.067047,492.877747 253.924454,741.029053 254.110962,989.180115 
	C254.130844,1015.634583 253.226044,1041.888184 248.027145,1067.897339 
	C244.133591,1087.376221 240.594116,1106.925659 236.790863,1126.422974 
	C233.597961,1142.791260 231.042389,1159.281860 234.122955,1175.858398 
	C237.617447,1194.662476 249.709335,1200.881714 267.064636,1197.253906 
	C279.790070,1194.593994 285.775146,1184.158569 285.635071,1171.116943 
	C285.441528,1153.098755 282.823822,1135.096924 281.035156,1117.108887 
	C279.510559,1101.776245 277.725647,1086.468994 275.990814,1071.157959 
	C274.386749,1057.000854 272.486572,1042.873413 271.153564,1028.691772 
	C270.662720,1023.469360 270.977966,1018.068542 271.697357,1012.855591 
	C273.420441,1000.370544 280.254028,990.624939 289.756134,982.854614 
	C302.702606,972.267761 317.544403,968.202271 333.813690,973.129272 
	C344.618530,976.401489 352.388275,984.146729 359.211090,993.022705 
	C373.423309,1011.512024 377.353821,1033.043213 377.862305,1055.469360 
	C378.067078,1064.500977 377.033478,1073.602051 376.021973,1082.610840 
	C374.262695,1098.279053 372.308777,1113.933105 370.030640,1129.533813 
	C365.830933,1158.293457 361.367859,1187.014526 356.954651,1215.742554 
	C354.398499,1232.381958 353.634216,1249.044434 357.104370,1265.607300 
	C359.311371,1276.141113 363.681519,1285.507568 373.216583,1291.816528 
	C382.152954,1297.729492 392.098267,1297.815552 401.898224,1296.722534 
	C410.492920,1295.763916 417.870239,1291.632935 423.404449,1284.292969 
	C430.701569,1274.614990 433.559143,1263.359985 433.672089,1251.939087 
	C433.825256,1236.450195 433.014923,1220.775146 430.671783,1205.478149 
	C426.889832,1180.787842 421.083588,1156.413940 416.954773,1131.768555 
	C413.377838,1110.417236 410.391418,1088.930908 408.191650,1067.397095 
	C406.650299,1052.309082 409.125214,1037.342773 414.970337,1023.221191 
	C426.172791,996.156372 453.147278,974.403748 485.979462,982.843872 
	C513.317017,989.871399 528.565063,1014.564514 526.126770,1040.968018 
	C525.563721,1047.065430 524.815491,1053.149048 524.010925,1059.220093 
	C522.472656,1070.827271 520.538452,1082.390259 519.332214,1094.030151 
	C518.438721,1102.653442 517.519958,1111.453003 518.302002,1120.019775 
	C519.048706,1128.199341 523.929871,1133.343628 533.160034,1133.767456 
	C541.057983,1134.130005 545.712646,1131.524902 548.677002,1123.402344 
	C550.923401,1117.247192 551.213989,1110.848389 550.189331,1104.062256 
	C547.284790,1084.825439 545.852661,1065.358398 542.698730,1046.169556 
	C539.229858,1025.064087 538.007874,1003.807190 537.188843,982.555237 
	C536.361694,961.090271 537.051636,939.566711 537.493103,917.353333 
	C537.494690,913.507141 537.496277,909.660889 537.541992,904.902222 
	C537.580750,895.290039 537.619507,885.677795 537.826782,875.507935 
	C537.774536,875.320923 537.722290,875.133911 537.767029,874.173706 
	C537.738464,873.136536 537.709900,872.099304 537.845886,870.505920 
z"/>
<path fill="#3270F6" opacity="1.000000" stroke="none" 
	d="
M1288.221069,1258.983765 
	C1288.180054,1253.297241 1288.139038,1247.610718 1288.338623,1241.156250 
	C1288.711060,1239.236328 1288.842896,1238.084351 1288.974854,1236.932373 
	C1290.310059,1218.795410 1291.593140,1200.654419 1292.998901,1182.522949 
	C1293.916382,1170.687744 1294.904419,1158.855957 1296.053223,1147.041382 
	C1297.599243,1131.141357 1299.994995,1115.293945 1300.827759,1099.361450 
	C1302.093506,1075.143921 1303.068359,1050.862305 1302.727173,1026.628174 
	C1302.523560,1012.162048 1299.090210,997.886841 1290.454590,985.549927 
	C1282.904053,974.763306 1272.353394,969.293762 1259.405396,969.118896 
	C1251.851807,969.016907 1244.168701,969.655701 1236.738281,971.019958 
	C1217.348389,974.579895 1213.328613,984.315613 1210.989258,999.500366 
	C1208.512573,1015.576416 1211.523071,1031.363037 1213.859375,1047.131470 
	C1216.642822,1065.918701 1219.953369,1084.627441 1223.009399,1103.374634 
	C1225.346802,1117.712646 1227.899902,1132.022583 1229.849976,1146.413696 
	C1230.822998,1153.594360 1230.928467,1160.928711 1230.933838,1168.193848 
	C1230.939087,1175.314697 1231.206299,1182.621094 1229.767090,1189.513672 
	C1227.601196,1199.885254 1218.568481,1206.593262 1206.461792,1204.107666 
	C1193.143555,1201.373169 1188.688599,1196.404175 1188.181030,1182.333618 
	C1187.843872,1172.985840 1189.201782,1163.568237 1189.943726,1154.193115 
	C1190.513672,1146.989990 1191.237061,1139.796753 1192.015991,1132.612671 
	C1193.269531,1121.051025 1194.645630,1109.502563 1195.930054,1097.944092 
	C1196.654907,1091.420288 1197.409790,1084.896729 1197.954834,1078.356689 
	C1198.735352,1068.993408 1199.967285,1059.610962 1199.903931,1050.244141 
	C1199.640137,1011.288086 1185.948730,977.993896 1155.421997,953.144470 
	C1129.567749,932.098511 1100.100952,917.795959 1067.237061,910.918457 
	C1050.595459,907.435791 1033.773193,906.092224 1016.870239,907.080627 
	C993.299927,908.459045 970.096741,912.264709 949.687561,925.077942 
	C928.379089,938.455750 913.671936,956.960205 910.008118,982.631348 
	C908.798462,991.106506 908.267273,999.723755 908.083496,1008.290100 
	C907.776184,1022.615295 908.123352,1036.953125 907.964844,1051.283081 
	C907.764526,1069.387451 907.313354,1087.488770 907.007263,1105.592163 
	C906.650513,1126.688721 905.796143,1147.796265 906.197083,1168.879150 
	C906.445862,1181.957397 908.532532,1195.008911 909.966370,1208.053589 
	C911.183105,1219.123779 912.557495,1230.178833 914.028442,1241.218384 
	C915.280212,1250.612427 916.755615,1259.976807 918.156982,1269.350708 
	C919.414185,1277.760376 920.940247,1286.137329 921.935181,1294.577271 
	C924.457825,1315.976685 925.961853,1337.469971 924.876709,1359.006836 
	C924.265015,1371.148193 922.080750,1383.014648 914.366272,1393.231079 
	C903.904236,1407.086182 877.399170,1407.744629 867.938721,1388.953003 
	C863.751709,1380.635986 861.499451,1371.924683 861.013916,1362.704712 
	C860.613953,1355.111206 859.697266,1347.474243 860.135742,1339.921997 
	C860.992371,1325.168579 862.521851,1310.449463 863.989624,1295.737671 
	C865.160156,1284.005005 866.453491,1272.276978 868.056091,1260.596924 
	C869.763428,1248.153564 872.040649,1235.789185 873.804688,1223.352783 
	C875.390442,1212.173706 876.671143,1200.949829 877.989197,1189.734375 
	C879.385376,1177.854004 881.143921,1165.989380 881.874634,1154.064697 
	C882.736572,1139.999512 882.820740,1125.878906 882.970032,1111.779419 
	C883.389221,1072.184570 883.545654,1032.586426 884.054565,992.992859 
	C884.314026,972.800598 880.434814,953.335205 871.849854,935.339294 
	C858.030518,906.371155 843.343750,877.788818 828.172791,849.499634 
	C800.588867,798.064087 772.296631,747.008606 744.553101,695.657837 
	C741.542786,690.086121 738.556458,685.260559 732.437256,682.793213 
	C729.260925,681.512512 726.390015,679.474548 723.347351,677.759644 
	C720.479492,681.372437 718.090942,684.991333 715.108337,688.026550 
	C705.443115,697.862000 693.182617,702.032776 679.771057,702.878723 
	C668.529846,703.587830 657.247803,703.646484 645.984131,704.002014 
	C635.719910,704.325928 625.421021,705.360229 615.199341,704.847595 
	C593.688110,703.768738 570.103394,700.122925 547.913269,680.545532 
	C544.218994,684.179016 539.251648,687.274353 537.090271,691.730652 
	C535.203186,695.621216 536.420715,701.044250 536.387024,705.791077 
	C536.376648,707.249268 536.935242,708.709290 536.943604,710.170105 
	C537.247070,763.120178 537.516235,816.070312 537.612976,869.596619 
	C537.404541,870.282349 537.319275,870.413513 537.352661,870.497253 
	C537.432373,870.697449 537.568176,870.875244 537.681274,871.062134 
	C537.709900,872.099304 537.738464,873.136536 537.585754,874.671753 
	C537.372559,875.280884 537.285400,875.414490 537.319763,875.498413 
	C537.402283,875.699890 537.541748,875.878052 537.658264,876.065613 
	C537.619507,885.677795 537.580750,895.290039 537.344299,905.738037 
	C537.123352,910.405518 537.100098,914.237183 537.076904,918.068848 
	C537.051636,939.566711 536.361694,961.090271 537.188843,982.555237 
	C538.007874,1003.807190 539.229858,1025.064087 542.698730,1046.169556 
	C545.852661,1065.358398 547.284790,1084.825439 550.189331,1104.062256 
	C551.213989,1110.848389 550.923401,1117.247192 548.677002,1123.402344 
	C545.712646,1131.524902 541.057983,1134.130005 533.160034,1133.767456 
	C523.929871,1133.343628 519.048706,1128.199341 518.302002,1120.019775 
	C517.519958,1111.453003 518.438721,1102.653442 519.332214,1094.030151 
	C520.538452,1082.390259 522.472656,1070.827271 524.010925,1059.220093 
	C524.815491,1053.149048 525.563721,1047.065430 526.126770,1040.968018 
	C528.565063,1014.564514 513.317017,989.871399 485.979462,982.843872 
	C453.147278,974.403748 426.172791,996.156372 414.970337,1023.221191 
	C409.125214,1037.342773 406.650299,1052.309082 408.191650,1067.397095 
	C410.391418,1088.930908 413.377838,1110.417236 416.954773,1131.768555 
	C421.083588,1156.413940 426.889832,1180.787842 430.671783,1205.478149 
	C433.014923,1220.775146 433.825256,1236.450195 433.672089,1251.939087 
	C433.559143,1263.359985 430.701569,1274.614990 423.404449,1284.292969 
	C417.870239,1291.632935 410.492920,1295.763916 401.898224,1296.722534 
	C392.098267,1297.815552 382.152954,1297.729492 373.216583,1291.816528 
	C363.681519,1285.507568 359.311371,1276.141113 357.104370,1265.607300 
	C353.634216,1249.044434 354.398499,1232.381958 356.954651,1215.742554 
	C361.367859,1187.014526 365.830933,1158.293457 370.030640,1129.533813 
	C372.308777,1113.933105 374.262695,1098.279053 376.021973,1082.610840 
	C377.033478,1073.602051 378.067078,1064.500977 377.862305,1055.469360 
	C377.353821,1033.043213 373.423309,1011.512024 359.211090,993.022705 
	C352.388275,984.146729 344.618530,976.401489 333.813690,973.129272 
	C317.544403,968.202271 302.702606,972.267761 289.756134,982.854614 
	C280.254028,990.624939 273.420441,1000.370544 271.697357,1012.855591 
	C270.977966,1018.068542 270.662720,1023.469360 271.153564,1028.691772 
	C272.486572,1042.873413 274.386749,1057.000854 275.990814,1071.157959 
	C277.725647,1086.468994 279.510559,1101.776245 281.035156,1117.108887 
	C282.823822,1135.096924 285.441528,1153.098755 285.635071,1171.116943 
	C285.775146,1184.158569 279.790070,1194.593994 267.064636,1197.253906 
	C249.709335,1200.881714 237.617447,1194.662476 234.122955,1175.858398 
	C231.042389,1159.281860 233.597961,1142.791260 236.790863,1126.422974 
	C240.594116,1106.925659 244.133591,1087.376221 248.027145,1067.897339 
	C253.226044,1041.888184 254.130844,1015.634583 254.110962,989.180115 
	C253.924454,741.029053 254.067047,492.877747 253.870667,244.726730 
	C253.855316,225.342316 248.518494,207.278290 234.373672,192.867844 
	C233.910507,192.395966 233.419220,191.911102 233.106888,191.341370 
	C232.649048,190.506256 232.341202,189.588913 232.043045,188.881287 
	C236.032928,184.827667 239.872650,180.926620 243.048492,177.700043 
	C251.047424,182.622955 258.599060,187.707199 266.555084,192.050690 
	C275.428223,196.894836 285.276672,198.933578 295.305542,198.938065 
	C484.293732,199.022537 673.281921,198.976746 862.270142,199.043930 
	C878.037109,199.049545 893.808655,199.520294 909.569153,200.044739 
	C923.273682,200.500778 937.021729,200.779358 950.648865,202.148483 
	C968.048218,203.896606 985.478516,205.949432 1002.655273,209.156891 
	C1027.735352,213.840164 1052.778198,218.968521 1077.509521,225.205414 
	C1101.853882,231.344757 1124.084595,242.752945 1144.722656,257.023102 
	C1160.763550,268.114532 1176.261963,279.983673 1189.047363,294.855225 
	C1202.208740,310.164368 1211.125977,328.061462 1218.518799,346.669312 
	C1225.861694,365.151459 1230.941528,384.299133 1231.921997,404.259003 
	C1232.631226,418.700836 1233.295288,433.201691 1232.790283,447.634613 
	C1231.718628,478.263855 1228.810791,508.730804 1218.919556,538.015198 
	C1210.043945,564.292847 1197.853760,588.794312 1178.954346,609.519592 
	C1158.761475,631.663513 1133.540894,645.456848 1104.846802,652.667908 
	C1090.692749,656.224976 1076.031128,657.871338 1061.532349,659.904907 
	C1053.075928,661.090942 1044.475952,661.224365 1035.969849,662.110901 
	C1034.578735,662.255920 1032.740967,663.570129 1032.148926,664.831726 
	C1030.761475,667.788025 1030.004150,671.040161 1028.995972,674.159546 
	C1035.608032,677.622314 1042.327148,680.754272 1048.658447,684.536011 
	C1062.699951,692.923096 1072.914307,704.640747 1080.096069,719.514526 
	C1096.714111,753.932129 1113.647217,788.205627 1131.011475,822.252441 
	C1145.981201,851.604126 1167.815186,875.664490 1191.357544,898.382019 
	C1213.902710,920.137451 1241.237793,933.917236 1269.062866,947.201660 
	C1282.965820,953.839233 1296.295288,961.684998 1309.827759,969.087524 
	C1314.239258,971.500732 1315.905762,975.207886 1316.147461,980.480591 
	C1317.079590,1000.818970 1318.011353,1021.189453 1320.049316,1041.436646 
	C1322.439209,1065.182129 1325.647705,1088.860840 1329.128784,1112.475952 
	C1331.893555,1131.231445 1335.859985,1149.807129 1338.812500,1168.538330 
	C1341.241943,1183.951416 1343.653442,1199.423828 1344.825439,1214.963989 
	C1346.233398,1233.631958 1346.782104,1252.398926 1346.817749,1271.124634 
	C1346.842041,1283.885620 1343.445190,1296.171387 1336.834106,1307.246216 
	C1331.633545,1315.958252 1323.574341,1320.170898 1313.520630,1318.854004 
	C1304.427368,1317.663086 1299.312866,1310.987305 1296.156006,1303.037964 
	C1291.192261,1290.538940 1288.945923,1277.450684 1289.010010,1263.174805 
	C1288.756592,1261.236816 1288.488892,1260.110229 1288.221069,1258.983765 
M559.002075,488.927979 
	C558.472168,509.238007 550.310486,526.337646 536.364380,541.129395 
	C540.561768,545.094543 544.359741,548.682373 547.172852,551.339844 
	C554.940918,546.914185 561.531372,542.342224 568.745544,539.204163 
	C589.525452,530.165283 611.784668,527.559021 634.075317,527.265442 
	C659.618286,526.929016 685.184998,528.319702 710.739990,529.011963 
	C720.014709,529.263184 729.285034,529.676392 738.558044,529.994385 
	C758.271729,530.670532 777.982971,531.717224 797.700745,531.860107 
	C810.064636,531.949646 822.438171,530.666138 834.807922,530.009155 
	C851.742310,529.109802 868.230835,525.868591 884.086487,519.895874 
	C897.963013,514.668701 910.034302,506.970398 917.145020,493.209290 
	C921.452820,484.872650 923.541443,476.066162 924.357361,466.695404 
	C925.352112,455.270630 924.215759,444.343140 919.080872,434.102417 
	C911.453979,418.891785 897.703491,410.934601 882.680969,405.002655 
	C861.258423,396.543518 838.440552,396.324280 815.930786,395.165649 
	C802.388000,394.468567 788.747681,395.642487 775.151917,396.003021 
	C763.388916,396.314941 751.627686,396.694611 739.864319,396.991577 
	C725.413635,397.356384 710.962463,397.718323 696.509705,397.978088 
	C689.347229,398.106842 682.180542,398.004150 674.666016,397.929596 
	C674.408264,397.934143 674.201355,398.038971 673.270081,398.480164 
	C672.193726,398.525269 671.117371,398.570374 669.810974,398.370392 
	C669.524963,398.469879 669.239014,398.569397 668.029053,398.793335 
	C658.031128,398.754211 648.033142,398.715088 637.454224,398.287933 
	C636.303650,398.190186 635.153076,398.092438 633.069214,397.998383 
	C624.504761,397.325195 615.921021,396.835297 607.379822,395.940582 
	C589.706482,394.089233 572.796875,389.557556 557.165283,380.851929 
	C553.821167,378.989502 550.157837,375.154297 547.266479,375.678009 
	C543.758484,376.313385 540.902466,380.596161 537.793579,383.333984 
	C537.343079,383.730743 537.054932,384.311890 536.576965,384.964233 
	C551.306885,399.718262 558.550049,417.443939 558.898926,438.346649 
	C558.891663,438.610199 558.995300,438.818695 559.469666,439.598816 
	C559.506897,440.047791 559.544189,440.496765 559.331360,441.187134 
	C559.446228,441.478729 559.561096,441.770325 559.802490,442.983704 
	C559.759521,456.639038 559.716553,470.294373 559.284973,484.539185 
	C559.195801,485.703339 559.106628,486.867493 559.002075,488.927979 
z"/>
<path fill="#103684" opacity="1.000000" stroke="none" 
	d="
M537.285034,917.711060 
	C537.100098,914.237183 537.123352,910.405518 537.322266,906.194275 
	C537.496277,909.660889 537.494690,913.507141 537.285034,917.711060 
z"/>
<path fill="#245ED4" opacity="1.000000" stroke="none" 
	d="
M1288.694580,1237.167847 
	C1288.842896,1238.084351 1288.711060,1239.236328 1288.406982,1240.692627 
	C1288.294678,1239.798950 1288.354492,1238.601196 1288.694580,1237.167847 
z"/>
<path fill="#245ED4" opacity="1.000000" stroke="none" 
	d="
M1288.139648,1259.343750 
	C1288.488892,1260.110229 1288.756592,1261.236816 1288.997070,1262.717773 
	C1288.665771,1261.949341 1288.361938,1260.826416 1288.139648,1259.343750 
z"/>
<path fill="#1F50B7" opacity="1.000000" stroke="none" 
	d="
M537.763550,870.784058 
	C537.568176,870.875244 537.432373,870.697449 537.352661,870.497253 
	C537.319275,870.413513 537.404541,870.282349 537.564331,870.059570 
	C537.743896,870.132935 537.794922,870.319458 537.763550,870.784058 
z"/>
<path fill="#1F50B7" opacity="1.000000" stroke="none" 
	d="
M537.742554,875.786743 
	C537.541748,875.878052 537.402283,875.699890 537.319763,875.498413 
	C537.285400,875.414490 537.372559,875.280884 537.537231,875.058350 
	C537.722290,875.133911 537.774536,875.320923 537.742554,875.786743 
z"/>
<path fill="#000000" opacity="0" stroke="none" 
	d="
M638.035217,398.675934 
	C648.033142,398.715088 658.031128,398.754211 668.767029,398.798523 
	C669.683655,398.740967 669.862366,398.678223 670.041016,398.615479 
	C671.117371,398.570374 672.193726,398.525269 673.830627,398.447510 
	C674.672729,398.390717 674.880920,398.254486 675.015808,398.006165 
	C682.180542,398.004150 689.347229,398.106842 696.509705,397.978088 
	C710.962463,397.718323 725.413635,397.356384 739.864319,396.991577 
	C751.627686,396.694611 763.388916,396.314941 775.151917,396.003021 
	C788.747681,395.642487 802.388000,394.468567 815.930786,395.165649 
	C838.440552,396.324280 861.258423,396.543518 882.680969,405.002655 
	C897.703491,410.934601 911.453979,418.891785 919.080872,434.102417 
	C924.215759,444.343140 925.352112,455.270630 924.357361,466.695404 
	C923.541443,476.066162 921.452820,484.872650 917.145020,493.209290 
	C910.034302,506.970398 897.963013,514.668701 884.086487,519.895874 
	C868.230835,525.868591 851.742310,529.109802 834.807922,530.009155 
	C822.438171,530.666138 810.064636,531.949646 797.700745,531.860107 
	C777.982971,531.717224 758.271729,530.670532 738.558044,529.994385 
	C729.285034,529.676392 720.014709,529.263184 710.739990,529.011963 
	C685.184998,528.319702 659.618286,526.929016 634.075317,527.265442 
	C611.784668,527.559021 589.525452,530.165283 568.745544,539.204163 
	C561.531372,542.342224 554.940918,546.914185 547.172852,551.339844 
	C544.359741,548.682373 540.561768,545.094543 536.364380,541.129395 
	C550.310486,526.337646 558.472168,509.238007 559.228271,488.196198 
	C559.527527,486.292847 559.600525,485.121277 559.673584,483.949707 
	C559.716553,470.294373 559.759521,456.639038 559.802002,442.236420 
	C559.728210,441.308014 559.654846,441.126862 559.581421,440.945740 
	C559.544189,440.496765 559.506897,440.047791 559.413452,439.113678 
	C559.348633,438.355591 559.229065,438.145844 558.998596,437.999298 
	C558.550049,417.443939 551.306885,399.718262 536.576965,384.964233 
	C537.054932,384.311890 537.343079,383.730743 537.793579,383.333984 
	C540.902466,380.596161 543.758484,376.313385 547.266479,375.678009 
	C550.157837,375.154297 553.821167,378.989502 557.165283,380.851929 
	C572.796875,389.557556 589.706482,394.089233 607.379822,395.940582 
	C615.921021,396.835297 624.504761,397.325195 633.826294,398.196045 
	C635.734009,398.487793 636.884644,398.581879 638.035217,398.675934 
z"/>
<path fill="#2355C1" opacity="1.000000" stroke="none" 
	d="
M637.744751,398.481934 
	C636.884644,398.581879 635.734009,398.487793 634.292969,398.194214 
	C635.153076,398.092438 636.303650,398.190186 637.744751,398.481934 
z"/>
<path fill="#2052B7" opacity="1.000000" stroke="none" 
	d="
M559.479248,484.244446 
	C559.600525,485.121277 559.527527,486.292847 559.235962,487.748047 
	C559.106628,486.867493 559.195801,485.703339 559.479248,484.244446 
z"/>
<path fill="#2355C1" opacity="1.000000" stroke="none" 
	d="
M669.926025,398.492920 
	C669.862366,398.678223 669.683655,398.740967 669.229004,398.736328 
	C669.239014,398.569397 669.524963,398.469879 669.926025,398.492920 
z"/>
<path fill="#2355C1" opacity="1.000000" stroke="none" 
	d="
M674.840942,397.967896 
	C674.880920,398.254486 674.672729,398.390717 674.218262,398.329468 
	C674.201355,398.038971 674.408264,397.934143 674.840942,397.967896 
z"/>
<path fill="#2052B7" opacity="1.000000" stroke="none" 
	d="
M558.948730,438.172974 
	C559.229065,438.145844 559.348633,438.355591 559.283447,438.800323 
	C558.995300,438.818695 558.891663,438.610199 558.948730,438.172974 
z"/>
<path fill="#2052B7" opacity="1.000000" stroke="none" 
	d="
M559.456421,441.066437 
	C559.654846,441.126862 559.728210,441.308014 559.738770,441.775513 
	C559.561096,441.770325 559.446228,441.478729 559.456421,441.066437 
z"/>
</svg>